<svg version="1.0" xmlns="http://www.w3.org/2000/svg"
 width="131.000000pt" height="40.000000pt" viewBox="0 0 2158.000000 512.000000"
 preserveAspectRatio="xMidYMid meet">

<g transform="translate(0.000000,512.000000) scale(0.100000,-0.100000)"
fill="red" stroke="none">

<path d="M2060 3364 c-30 -8 -61 -17 -68 -19 -7 -3 22 -35 70 -76 91 -78 96
-80 206 -47 l44 13 -85 73 c-47 39 -92 72 -99 71 -7 0 -38 -7 -68 -15z"/>
<path d="M1690 3270 c-36 -9 -71 -18 -77 -21 -7 -2 25 -37 72 -77 l85 -74 80
18 c44 9 80 20 79 23 0 6 -110 100 -152 132 -20 15 -27 15 -87 -1z"/>
<path d="M1293 3172 c-35 -8 -63 -19 -63 -23 0 -3 37 -38 82 -76 l82 -70 75
19 c42 11 77 21 79 23 6 6 -166 145 -179 144 -8 -1 -42 -8 -76 -17z"/>
<path d="M984 3093 c-8 -3 -5 -30 12 -90 13 -47 25 -88 28 -90 5 -5 129 26
138 36 4 4 -27 36 -69 71 -89 75 -94 79 -109 73z"/>
<path d="M1037 2814 c-4 -4 -7 -47 -7 -96 l0 -88 81 0 80 0 -64 92 c-64 92
-77 105 -90 92z"/>
<path d="M1303 2813 c-8 -3 9 -36 49 -94 l62 -89 84 0 c64 0 81 3 76 13 -34
55 -119 163 -132 169 -20 8 -121 9 -139 1z"/>
<path d="M1738 2813 l-57 -4 57 -84 c31 -47 66 -87 77 -90 11 -3 51 -5 88 -3
l67 3 -65 93 c-52 72 -71 92 -88 90 -12 -1 -48 -3 -79 -5z"/>
<path d="M2088 2813 c-13 -3 -5 -21 45 -93 l62 -89 83 -1 c64 0 81 3 76 13
-43 71 -118 166 -137 171 -25 6 -103 6 -129 -1z"/>
<path d="M2470 2803 c1 -14 115 -166 128 -171 9 -3 12 19 12 87 l0 91 -70 0
c-38 0 -70 -3 -70 -7z"/>
<path d="M1032 2238 c3 -291 4 -305 25 -345 12 -22 39 -55 60 -72 73 -60 80
-61 702 -61 343 0 583 4 610 11 63 14 123 59 154 117 l27 50 0 301 0 301 -791
0 -790 0 3 -302z m853 36 c113 -64 205 -120 205 -124 0 -12 -410 -241 -421
-235 -10 7 -13 458 -2 468 9 10 -6 17 218 -109z"/>


<path d="M4995 3934 c-225 -50 -379 -202 -442 -434 -17 -60 -18 -139 -18 -995
l0 -930 23 -80 c80 -276 271 -419 578 -432 398 -17 640 183 684 565 5 48 10
185 10 305 l0 217 -209 0 -210 0 -3 -272 c-3 -261 -4 -275 -26 -315 -34 -64
-90 -97 -174 -101 -118 -7 -185 33 -222 130 -15 39 -16 130 -14 928 l3 885 23
42 c12 24 41 55 64 70 37 25 50 28 128 28 77 0 91 -3 127 -27 26 -17 49 -45
64 -75 23 -45 24 -61 27 -260 l3 -213 211 0 211 0 -6 223 c-6 250 -20 326 -82
454 -63 129 -189 230 -345 278 -80 24 -313 30 -405 9z"/>
<path d="M6500 2505 l0 -1405 220 0 220 0 0 635 0 635 235 0 235 0 0 -635 0
-635 220 0 220 0 0 1405 0 1405 -220 0 -220 0 0 -575 0 -575 -235 0 -235 0 0
575 0 575 -220 0 -220 0 0 -1405z"/>
<path d="M8590 2505 l0 -1405 220 0 220 0 0 1405 0 1405 -220 0 -220 0 0
-1405z"/>
<path d="M9770 2505 l0 -1405 580 0 580 0 0 200 0 200 -365 0 -365 0 0 1205 0
1205 -215 0 -215 0 0 -1405z"/>
<path d="M11550 2505 l0 -1405 585 0 585 0 0 200 0 200 -365 0 -365 0 0 1205
0 1205 -220 0 -220 0 0 -1405z"/>
<path d="M13340 2505 l0 -1405 215 0 215 0 2 612 3 613 288 3 287 2 0 195 0
195 -287 2 -288 3 -3 393 -2 392 365 0 365 0 0 200 0 200 -580 0 -580 0 0
-1405z"/>
<path d="M15120 2505 l0 -1405 585 0 585 0 0 200 0 200 -365 0 -365 0 0 1205
0 1205 -220 0 -220 0 0 -1405z"/>
<path d="M16910 2505 l0 -1405 215 0 215 0 0 1405 0 1405 -215 0 -215 0 0
-1405z"/>
<path d="M17990 3905 c0 -2 108 -311 241 -686 l241 -682 -232 -656 c-128 -361
-243 -684 -256 -718 l-23 -63 209 0 208 0 163 487 c89 269 164 490 167 493 6
7 -3 35 172 -500 l157 -475 231 -3 c128 -1 232 -1 232 0 0 2 -114 325 -254
719 l-254 716 229 649 c126 357 236 666 244 687 l15 37 -209 0 -209 0 -152
-456 c-84 -250 -156 -452 -160 -447 -4 4 -74 209 -154 456 l-147 447 -229 0
c-127 0 -230 -2 -230 -5z"/>
</g>
</svg>


